<svg xmlns="http://www.w3.org/2000/svg" viewBox="0 0 133.45 141.05"><defs><style>.cls-1{fill:#537aa3;}.cls-2{fill:#fab26f;}.cls-3{fill:#ffdba8;}.cls-4,.cls-5{fill:none;stroke-linecap:round;stroke-linejoin:round;stroke-width:5px;}.cls-4{stroke:#243c62;}.cls-5{stroke:#86a1bf;}</style></defs><title>Asset 1</title><g id="Layer_2" data-name="Layer 2"><g id="Layer_1-2" data-name="Layer 1"><path class="cls-1" d="M123,138.55H10.48a5,5,0,0,1-5-5V7.5a5,5,0,0,1,5-5H123a5,5,0,0,1,5,5v126A5,5,0,0,1,123,138.55Z"/><path class="cls-1" d="M128,8.67V132.38a6.16,6.16,0,0,1-6.16,6.16H11.64a6.16,6.16,0,0,1-6.16-6.16V8.67a6.16,6.16,0,0,1,6.16-6.16H121.79A6.15,6.15,0,0,1,128,8.67Z"/><path class="cls-2" d="M128,117.64v14.75a6.16,6.16,0,0,1-6.16,6.16H11.64a6.16,6.16,0,0,1-6.16-6.16V117.64Z"/><path class="cls-3" d="M128,23.42V8.67a6.16,6.16,0,0,0-6.16-6.16H11.64A6.16,6.16,0,0,0,5.48,8.67V23.42Z"/><path class="cls-4" d="M123,138.55H10.48a5,5,0,0,1-5-5V7.5a5,5,0,0,1,5-5H123a5,5,0,0,1,5,5v126A5,5,0,0,1,123,138.55Z"/><line class="cls-4" x1="2.5" y1="23.42" x2="130.95" y2="23.42"/><line class="cls-4" x1="2.5" y1="117.64" x2="130.95" y2="117.64"/><line class="cls-4" x1="39.84" y1="27.9" x2="39.84" y2="42.83"/><line class="cls-4" x1="93.61" y1="27.9" x2="93.61" y2="42.83"/><line class="cls-4" x1="39.84" y1="98.22" x2="39.84" y2="113.15"/><line class="cls-4" x1="93.61" y1="98.22" x2="93.61" y2="113.15"/><line class="cls-5" x1="17.48" y1="52.8" x2="17.48" y2="108.75"/><line class="cls-5" x1="17.48" y1="36.4" x2="17.48" y2="41.04"/></g></g></svg>