<?xml version="1.0" encoding="utf-8"?>
<!-- Generator: Adobe Illustrator 23.1.0, SVG Export Plug-In . SVG Version: 6.00 Build 0)  -->
<svg version="1.1" id="Layer_1" xmlns="http://www.w3.org/2000/svg" xmlns:xlink="http://www.w3.org/1999/xlink" x="0px" y="0px"
	 viewBox="0 0 243 242" style="enable-background:new 0 0 243 242;" xml:space="preserve">
<style type="text/css">
	.st0{fill:#FAB26F;}
	.st1{fill:none;stroke:#243C62;stroke-width:5;stroke-linecap:round;stroke-linejoin:round;stroke-miterlimit:10;}
	.st2{fill:#537AA3;}
</style>
<g>
	<path class="st0" d="M130.06,118.73v2.47c0,3.4-2.76,6.16-6.16,6.16h-18.16c-3.4,0-6.16-2.76-6.16-6.16v-2.47l-53.18-13.56h136.86
		L130.06,118.73z"/>
	<path class="st1" d="M130.06,118.73v2.47c0,3.4-2.76,6.16-6.16,6.16h-18.16c-3.4,0-6.16-2.76-6.16-6.16v-2.47l-53.18-13.56h136.86
		L130.06,118.73z"/>
	<path class="st2" d="M117.83,135.99h-6.03c-2.76,0-5-2.24-5-5v-3.63h16.03v3.63C122.83,133.76,120.59,135.99,117.83,135.99z"/>
	<path class="st1" d="M117.83,135.99h-6.03c-2.76,0-5-2.24-5-5v-3.63h16.03v3.63C122.83,133.76,120.59,135.99,117.83,135.99z"/>
</g>
<g>
	<path class="st0" d="M129.41,85.81v-2.47c0-3.4-2.76-6.16-6.16-6.16h-18.16c-3.4,0-6.16,2.76-6.16,6.16v2.47L45.74,99.37h136.86
		L129.41,85.81z"/>
	<path class="st1" d="M129.41,85.81v-2.47c0-3.4-2.76-6.16-6.16-6.16h-18.16c-3.4,0-6.16,2.76-6.16,6.16v2.47L45.74,99.37h136.86
		L129.41,85.81z"/>
	<path class="st2" d="M117.18,68.55h-6.03c-2.76,0-5,2.24-5,5v3.63h16.03v-3.63C122.18,70.79,119.94,68.55,117.18,68.55z"/>
	<path class="st1" d="M117.18,68.55h-6.03c-2.76,0-5,2.24-5,5v3.63h16.03v-3.63C122.18,70.79,119.94,68.55,117.18,68.55z"/>
</g>
</svg>
