<?xml version="1.0" encoding="utf-8"?>
<!-- Generator: Adobe Illustrator 23.1.0, SVG Export Plug-In . SVG Version: 6.00 Build 0)  -->
<svg version="1.1" id="Layer_1" xmlns="http://www.w3.org/2000/svg" xmlns:xlink="http://www.w3.org/1999/xlink" x="0px" y="0px"
	 viewBox="0 0 243 242" style="enable-background:new 0 0 243 242;" xml:space="preserve">
<style type="text/css">
	.st0{fill:#537AA3;}
	.st1{fill:#FAB26F;}
	.st2{fill:#FFDBA8;}
	.st3{fill:none;stroke:#243C62;stroke-width:5;stroke-linecap:round;stroke-linejoin:round;stroke-miterlimit:10;}
	.st4{fill:none;stroke:#86A1BF;stroke-width:5;stroke-linecap:round;stroke-linejoin:round;stroke-miterlimit:10;}
</style>
<g>
	<path class="st0" d="M187.22,177.8H74.74c-2.76,0-5-2.24-5-5V83.74c0-2.76,2.24-5,5-5h112.48c2.76,0,5,2.24,5,5v89.05
		C192.22,175.56,189.98,177.8,187.22,177.8z"/>
	<path class="st0" d="M192.21,84.91v86.72c0,3.4-2.76,6.16-6.16,6.16H75.89c-3.4,0-6.16-2.76-6.16-6.16V84.91
		c0-3.4,2.76-6.16,6.16-6.16h110.15C189.45,78.74,192.21,81.5,192.21,84.91z"/>
	<path class="st1" d="M192.21,156.89v14.75c0,3.4-2.76,6.16-6.16,6.16H75.89c-3.4,0-6.16-2.76-6.16-6.16v-14.75H192.21z"/>
	<path class="st2" d="M192.21,99.66V84.91c0-3.4-2.76-6.16-6.16-6.16H75.89c-3.4,0-6.16,2.76-6.16,6.16v14.75H192.21z"/>
	<path class="st3" d="M187.22,177.8H74.74c-2.76,0-5-2.24-5-5V83.74c0-2.76,2.24-5,5-5h112.48c2.76,0,5,2.24,5,5v89.05
		C192.22,175.56,189.98,177.8,187.22,177.8z"/>
	<g>
		<line class="st3" x1="66.75" y1="99.66" x2="195.21" y2="99.66"/>
		<line class="st3" x1="66.75" y1="156.89" x2="195.21" y2="156.89"/>
	</g>
	<g>
		<g>
			<line class="st3" x1="104.09" y1="104.14" x2="104.09" y2="119.07"/>
			<line class="st3" x1="157.86" y1="104.14" x2="157.86" y2="119.07"/>
		</g>
		<g>
			<line class="st3" x1="104.09" y1="137.47" x2="104.09" y2="152.41"/>
			<line class="st3" x1="157.86" y1="137.47" x2="157.86" y2="152.41"/>
		</g>
	</g>
	<g>
		<line class="st4" x1="81.73" y1="129.03" x2="81.73" y2="148.01"/>
		<line class="st4" x1="81.73" y1="112.64" x2="81.73" y2="117.28"/>
	</g>
</g>
</svg>
