<svg xmlns="http://www.w3.org/2000/svg" viewBox="0 0 516.95 453.14"><defs><style>.cls-1{fill:#fab26f;}.cls-2{fill:#243c62;}</style></defs><title>Asset 2</title><g id="Layer_2" data-name="Layer 2"><g id="Layer_1-2" data-name="Layer 1"><path class="cls-1" d="M433.6,92.53l70-45.91A24,24,0,0,0,477.31,6.45L370.91,76.18c-49.81-8.79-97.18-9.67-112.4-9.67h0c-36.51,0-256,4.62-256,112.32v160.1c0,30.27,27.5,57.68,71.1,77.85V314.88a24,24,0,0,1,24-24c13.25,0,23.1,10.76,23.1,24v118.9a535.1,535.1,0,0,0,112.9,16.75V346.93a24,24,0,0,1,24-24h0a24,24,0,0,1,24,24v103.6c40.93-1.67,78.95-7.61,111.1-16.72V314.91a24,24,0,1,1,48,0v101.9c44.49-20.17,71.1-47.58,71.1-77.85V178.83C513.6,135.43,478.6,108.93,433.6,92.53ZM257.6,243h0c-114.9,0-207.1-29-207.1-64.39s93.12-63.1,207.1-63.1h0c17.5,0,34.47.71,50.71,2l-63,40.12a24,24,0,0,0-6.91,33.25,22.9,22.9,0,0,0,20.11,11.75,23.86,23.86,0,0,0,13.12-3.92L380.92,127c51.77,11.65,85.5,30.38,85.5,51.67C465.6,214.13,373.4,243,257.6,243Z"/><path class="cls-2" d="M236.1,453.14l-2.61-.11A536.78,536.78,0,0,1,120.06,436.2l-1.86-.49V314.88c0-12.07-9-21.53-20.6-21.53a21.54,21.54,0,0,0-21.5,21.53V420.69l-3.55-1.64C25.77,397.41,0,369,0,338.93V178.83c0-25.59,12.07-47.46,35.88-65,19.23-14.16,46.26-25.59,80.34-34C175.86,65.2,240.2,64,258.5,64c13.48,0,61.17.69,111.86,9.53L475.94,4.36A26.44,26.44,0,0,1,512.62,12,26.54,26.54,0,0,1,505,48.71l-65.9,43.21c51.46,19.87,76.76,49.11,75.21,87V339c0,30.46-25.77,58.91-72.57,80.13l-3.53,1.6V314.91a21.5,21.5,0,1,0-43,0V435.7l-1.82.52C360.3,445.59,321.68,451.4,281.7,453l-2.6.1V346.93a21.5,21.5,0,1,0-43,0ZM257.6,320.4a26.55,26.55,0,0,1,26.5,26.53v101c37.93-1.72,74.51-7.24,106.1-16v-117a26.5,26.5,0,1,1,53,0v98c42.66-20.15,66.1-46.32,66.1-73.94V178.73c1.52-36.57-24.24-64.78-76.56-83.85l-4.68-1.71,74.19-48.64a21.51,21.51,0,1,0-23.57-36L371.45,78.81l-1-.17C319.81,69.7,272,69,258.51,69c-18.16,0-82,1.18-141.1,15.71C84,92.94,57.55,104.09,38.85,117.86,16.39,134.4,5,154.92,5,178.83v160.1c0,27.22,23.43,53.37,66.1,73.91v-98a26.55,26.55,0,0,1,26.5-26.53c14.35,0,25.6,11.65,25.6,26.53v117a532.08,532.08,0,0,0,107.9,16.07v-101A26.55,26.55,0,0,1,257.6,320.4Zm0-74.87c-55.71,0-108-6.76-147.38-19C70.1,214,48,197,48,178.64s22.23-35,62.58-47.22C149.77,119.57,202,113,257.6,113c16.79,0,33.92.66,50.9,2l7.47.58-69.33,44.15a21.54,21.54,0,0,0-6.16,29.77l.08.12a20.34,20.34,0,0,0,17.94,10.5,21.37,21.37,0,0,0,11.75-3.51l110.19-72.25,1,.23c55.57,12.51,87.45,32.23,87.45,54.11C468.05,216.2,375.23,245.53,257.6,245.53Zm0-127.49c-55.14,0-106.84,6.45-145.57,18.16C74.52,147.54,53,163,53,178.64s21.4,31.45,58.71,43.09c38.86,12.12,90.67,18.8,145.89,18.8,55.58,0,107.71-6.66,146.79-18.77,37.47-11.6,59.17-27.31,59.53-43.11,0-18.87-30.82-37.16-82.52-48.94L273,200.8a26.43,26.43,0,0,1-14.49,4.33,25.22,25.22,0,0,1-22.23-12.94,26.54,26.54,0,0,1,7.66-36.65l56.66-36.08C286.21,118.52,271.78,118,257.6,118Z"/></g></g></svg>