<svg xmlns="http://www.w3.org/2000/svg" viewBox="0 0 525.95 462.34"><defs><style>.cls-1{fill:#fab26f;}.cls-2{fill:#243c62;}</style></defs><title>Asset 3</title><g id="Layer_2" data-name="Layer 2"><g id="Layer_1-2" data-name="Layer 1"><path class="cls-1" d="M438.1,97l70-45.91A24,24,0,0,0,481.81,11L375.41,80.68C325.6,71.89,278.23,71,263,71h0C226.5,71,7,75.63,7,183.33v160.1c0,30.27,27.5,57.68,71.1,77.85V319.38a24,24,0,0,1,24-24c13.25,0,23.1,10.76,23.1,24v118.9A535.1,535.1,0,0,0,238.1,455V351.43a24,24,0,0,1,24-24h0a24,24,0,0,1,24,24V455c40.93-1.66,78.95-7.61,111.1-16.72V319.41a24,24,0,1,1,48,0v101.9c44.49-20.17,71.1-47.58,71.1-77.85V183.33C518.1,139.93,483.1,113.43,438.1,97Zm-176,150.5h0c-114.9,0-207.1-29-207.1-64.39S148.12,120,262.1,120h0c17.5,0,34.47.72,50.71,2l-63,40.12a24,24,0,0,0-6.91,33.25A22.9,22.9,0,0,0,263,207.13a23.86,23.86,0,0,0,13.12-3.92l109.3-71.67c51.77,11.65,85.5,30.38,85.5,51.67C470.1,218.63,377.9,247.53,262.1,247.53Z"/><path class="cls-2" d="M245.1,462.34l-7.3-.31a541,541,0,0,1-114.38-17l-5.22-1.37V319.38c0-9.71-6.92-17-16.1-17a17,17,0,0,0-17,17V432.23l-9.94-4.59C26.69,405.21,0,375.31,0,343.43V183.33C0,69.92,219.08,64,263,64c13.42,0,60.49.68,110.88,9.3L478,5.09A31,31,0,0,1,512,57l-58.73,38.5c48,20.55,71.58,50.1,70.07,88v160c0,32.33-26.71,62.24-75.21,84.23l-9.89,4.48V319.41a17,17,0,1,0-34,0v124.2l-5.09,1.44c-33.42,9.46-72.4,15.33-112.72,17l-7.29.29V351.43a17,17,0,1,0-34,0Zm17-141.94a31.05,31.05,0,0,1,31,31v96.26c34.6-1.86,67.92-6.91,97.1-14.71V319.41a31,31,0,1,1,62,0v90.77c36.92-18.85,57.1-42.31,57.1-66.72V183c1.42-34.39-23.34-61.11-73.61-79.43l-13.11-4.78,81.69-53.56a17,17,0,0,0,4.89-23.56,17,17,0,0,0-23.52-4.91L376.92,88.05l-2.73-.48C323.89,78.7,276.37,78,263,78c-18,0-81.42,1.17-140,15.58-32.85,8.08-58.74,19-77,32.4-21.55,15.87-32,34.62-32,57.34v160.1c0,24,20.17,47.46,57.1,66.63V319.38a31.05,31.05,0,0,1,31-31c16.88,0,30.1,13.63,30.1,31V432.85a526.26,526.26,0,0,0,98.9,14.83V351.43A31.05,31.05,0,0,1,262.1,320.4Zm0-65.87c-56.15,0-109-6.83-148.72-19.23C70.61,222,48,203.93,48,183.14s22.75-38.52,65.78-51.53c39.6-12,92.27-18.57,148.32-18.57,16.91,0,34.15.67,51.25,2l20.92,1.61L253.56,168a17,17,0,0,0-4.81,23.51l.2.32A16,16,0,0,0,263,200.13a16.86,16.86,0,0,0,9.28-2.78l111.78-73.29,2.9.65c58.65,13.2,91,34,91,58.5v.16c-.48,20.73-23.38,38.7-66.22,52C371.74,247.72,318.61,254.53,262.1,254.53Zm0-127.49c-54.71,0-106,6.38-144.27,18C82.87,155.58,62,169.84,62,183.14c0,27.15,82.18,57.39,200.1,57.39,55.14,0,106.8-6.59,145.46-18.56,34.91-10.81,56-25.33,56.36-38.84-.1-15.95-30.26-33.14-77.16-44.1l-106.8,70a30.87,30.87,0,0,1-17,5.07,30,30,0,0,1-26.07-15.07,31.05,31.05,0,0,1,9-42.78l44.9-28.59C281.22,127.26,271.61,127,262.1,127Z"/></g></g></svg>