<?xml version="1.0" encoding="utf-8"?>
<!-- Generator: Adobe Illustrator 23.1.0, SVG Export Plug-In . SVG Version: 6.00 Build 0)  -->
<svg version="1.1" id="Layer_1" xmlns="http://www.w3.org/2000/svg" xmlns:xlink="http://www.w3.org/1999/xlink" x="0px" y="0px"
	 viewBox="0 0 640 480" style="enable-background:new 0 0 640 480;" xml:space="preserve">
<style type="text/css">
	.st0{fill:#FAB26F;}
</style>
<path class="st0" d="M491.76,100.51l70.02-45.91c11.09-7.27,14.19-22.14,6.91-33.25c-7.22-11.07-22.09-14.23-33.22-6.92
	l-106.4,69.73c-49.81-8.79-97.18-9.67-112.4-9.67c0,0,0,0,0,0c-36.51,0.02-256.01,4.62-256.01,112.32v160.1
	c0,30.27,27.5,57.68,71.1,77.85v-101.9c0-13.27,10.75-24.03,24-24.03s23.1,10.76,23.1,24.03v118.9c34.8,9.15,72.9,15.05,112.9,16.75
	v-103.6c0-13.27,10.75-24.03,24-24.03c0,0,0,0,0,0c13.25,0,24,10.76,24,24.03v103.6c40.93-1.67,78.95-7.61,111.1-16.72v-118.9
	c0-13.27,10.75-24.03,24-24.03s24,10.76,24,24.03v101.9c44.49-20.17,71.1-47.58,71.1-77.85V186.81
	C571.76,143.41,536.76,116.91,491.76,100.51z M315.76,251.01L315.76,251.01c-114.9,0-207.1-28.97-207.1-64.39s93.12-63.1,207.1-63.1
	c0,0,0,0,0,0c17.5,0,34.47,0.71,50.71,1.97l-63.01,40.12c-11.09,7.27-14.19,22.14-6.91,33.25c4.61,7.95,12.31,11.75,20.11,11.75
	c4.5,0,9.06-1.26,13.12-3.92l109.3-71.67c51.77,11.65,85.5,30.38,85.5,51.67C523.76,222.11,431.56,251.01,315.76,251.01z"/>
</svg>
