<svg xmlns="http://www.w3.org/2000/svg" viewBox="0 0 141.86 35.82"><defs><style>.cls-1{fill:#fab26f;}.cls-2{fill:none;stroke:#243c62;stroke-linecap:round;stroke-linejoin:round;stroke-width:5px;}.cls-3{fill:#537aa3;}</style></defs><title>Asset 1</title><g id="Layer_2" data-name="Layer 2"><g id="Layer_1-2" data-name="Layer 1"><path class="cls-1" d="M86.16,16.06v2.47A6.16,6.16,0,0,1,80,24.69H61.84a6.16,6.16,0,0,1-6.16-6.16V16.06L2.5,2.5H139.36Z"/><path class="cls-2" d="M86.16,16.06v2.47A6.16,6.16,0,0,1,80,24.69H61.84a6.16,6.16,0,0,1-6.16-6.16V16.06L2.5,2.5H139.36Z"/><path class="cls-3" d="M73.93,33.32h-6a5,5,0,0,1-5-5V24.69h16v3.63A5,5,0,0,1,73.93,33.32Z"/><path class="cls-2" d="M73.93,33.32h-6a5,5,0,0,1-5-5V24.69h16v3.63A5,5,0,0,1,73.93,33.32Z"/></g></g></svg>