<svg xmlns="http://www.w3.org/2000/svg" viewBox="0 0 141.86 35.82"><defs><style>.cls-1{fill:#fab26f;}.cls-2{fill:none;stroke:#243c62;stroke-linecap:round;stroke-linejoin:round;stroke-width:5px;}.cls-3{fill:#537aa3;}</style></defs><title>Asset 1</title><g id="Layer_2" data-name="Layer 2"><g id="Layer_1-2" data-name="Layer 1"><path class="cls-1" d="M86.17,19.76V17.29A6.16,6.16,0,0,0,80,11.13H61.85a6.16,6.16,0,0,0-6.16,6.16v2.47L2.5,33.32H139.36Z"/><path class="cls-2" d="M86.17,19.76V17.29A6.16,6.16,0,0,0,80,11.13H61.85a6.16,6.16,0,0,0-6.16,6.16v2.47L2.5,33.32H139.36Z"/><path class="cls-3" d="M73.94,2.5h-6a5,5,0,0,0-5,5v3.63h16V7.5A5,5,0,0,0,73.94,2.5Z"/><path class="cls-2" d="M73.94,2.5h-6a5,5,0,0,0-5,5v3.63h16V7.5A5,5,0,0,0,73.94,2.5Z"/></g></g></svg>