<svg xmlns="http://www.w3.org/2000/svg" viewBox="0 0 171.57 35.82"><defs><style>.cls-1{fill:#fab26f;}.cls-2{fill:none;stroke:#243c62;stroke-linecap:round;stroke-linejoin:round;stroke-width:5px;}.cls-3{fill:#537aa3;}</style></defs><title>Asset 1</title><g id="Layer_2" data-name="Layer 2"><g id="Layer_1-2" data-name="Layer 1"><path class="cls-1" d="M101.73,19.76V17.29a6.44,6.44,0,0,0-6.68-6.16H75.37a6.44,6.44,0,0,0-6.68,6.16v2.47L11.07,33.32H159.35Z"/><path class="cls-2" d="M104.34,19.76V17.29c0-3.4-3.36-6.16-7.5-6.16H74.74c-4.14,0-7.5,2.76-7.5,6.16v2.47L2.5,33.32H169.07Z"/><path class="cls-3" d="M87.94,2.5h-6a5,5,0,0,0-5,5v3.63h16V7.5A5,5,0,0,0,87.94,2.5Z"/><path class="cls-2" d="M87.94,2.5h-6a5,5,0,0,0-5,5v3.63h16V7.5A5,5,0,0,0,87.94,2.5Z"/></g></g></svg>