<svg xmlns="http://www.w3.org/2000/svg" viewBox="0 0 101.25 88.15"><defs><style>.cls-1{fill:#537aa3;}.cls-2{fill:#fab26f;}.cls-3{fill:#ffdba8;}.cls-4,.cls-5{fill:none;stroke-linecap:round;stroke-linejoin:round;stroke-width:5px;}.cls-4{stroke:#243c62;}.cls-5{stroke:#86a1bf;}</style></defs><title>Asset 1</title><g id="Layer_2" data-name="Layer 2"><g id="Layer_1-2" data-name="Layer 1"><path class="cls-1" d="M91.51,85.65H9.73a5,5,0,0,1-5-5V7.5a5,5,0,0,1,5-5H91.51a5,5,0,0,1,5,5V80.64A5,5,0,0,1,91.51,85.65Z"/><path class="cls-1" d="M96.5,8.67V79.49a6.16,6.16,0,0,1-6.16,6.16H10.89a6.16,6.16,0,0,1-6.16-6.16V8.67a6.16,6.16,0,0,1,6.16-6.16H90.34A6.15,6.15,0,0,1,96.5,8.67Z"/><path class="cls-2" d="M96.5,70v9.5a6.16,6.16,0,0,1-6.16,6.16H10.89a6.16,6.16,0,0,1-6.16-6.16V70Z"/><path class="cls-3" d="M96.5,18.17V8.67a6.16,6.16,0,0,0-6.16-6.16H10.89A6.16,6.16,0,0,0,4.73,8.67v9.5Z"/><path class="cls-4" d="M91.51,85.65H9.73a5,5,0,0,1-5-5V7.5a5,5,0,0,1,5-5H91.51a5,5,0,0,1,5,5V80.64A5,5,0,0,1,91.51,85.65Z"/><line class="cls-4" x1="2.5" y1="18.17" x2="98.75" y2="18.17"/><line class="cls-4" x1="2.5" y1="69.98" x2="98.75" y2="69.98"/><line class="cls-4" x1="30.48" y1="21.53" x2="30.48" y2="32.72"/><line class="cls-4" x1="70.77" y1="21.53" x2="70.77" y2="32.72"/><line class="cls-4" x1="30.48" y1="55.43" x2="30.48" y2="66.62"/><line class="cls-4" x1="70.77" y1="55.43" x2="70.77" y2="66.62"/><line class="cls-5" x1="13.72" y1="42.34" x2="13.72" y2="57.78"/><line class="cls-5" x1="13.72" y1="27.9" x2="13.72" y2="31.38"/></g></g></svg>